<?xml version="1.0" ?>
<!DOCTYPE svg  PUBLIC '-//W3C//DTD SVG 1.1//EN'  'http://www.w3.org/Graphics/SVG/1.1/DTD/svg11.dtd'>
<svg xmlns="http://www.w3.org/2000/svg" width="257.000" height="258.000" viewBox="-129.000 -129.000 257.000 258.000">
    <line x1="0.0" y1="0.0" x2="0.0" y2="0.0" stroke="none" fill="none" stroke-width="18.0" stroke-linecap="round"/>
    <polyline points="6.123233995736766e-15,-100.0 -1.7453292519943233,-100.0 -3.4903926818898823,-99.96953980452732 -5.234658726461115,-99.90862869205256 -6.977596065373761,-99.81728521669065 -8.718673783030173,-99.69553720254905 -10.457361530291356,-99.54342173525227 -12.193129686026447,-99.36098515064522 -13.925449518440447,-99.14828302067887 -15.65379334613104,-98.9053801364825 -17.377634698825474,-98.63235048862771 -19.09644847774849,-98.3292772445901 -20.8097111155725,-97.99625272341576 -22.51690073590128,-97.63337836759993 -24.217497312238564,-97.24076471218662 -25.910982826393145,-96.8185313510986 -27.59684142627225,-96.36680690070793 -29.274559583015076,-95.88572896065816 -30.943626247418663,-95.37544407195011 -32.60353300560842,-94.83610767230415 -34.25377423390592,-94.26788404881226 -35.89384725284678,-93.67094628789468 -37.52325248030169,-93.04547622257604 -39.14149358365396,-92.3916643770973 -40.74807763098726,-91.70970990888021 -42.34251524123744,-90.99982054786204 -43.92432073326276,-90.262212533219 -45.493012273787045,-89.49711054749773 -47.0481120241708,-88.70474764817477 -48.58914628596546,-87.88536519666506 -50.11564564520656,-87.03921278480087 -51.627145115401746,-86.1665481588037 -53.12318427917016,-85.26763714077234 -54.60330742849007,-84.34275354771081 -56.06706370351192,-83.39217910812113 -57.51400722989461,-82.41620337618599 -58.943697254623146,-81.41512364356784 -60.355698280266274,-80.38924484885092 -61.74958019763323,-79.338879484654 -63.124918416789136,-78.26434750244215 -64.48129399638924,-77.16597621506635 -65.8182937712925,-76.04410019706091 -67.13551047841567,-74.89906118272879" stroke="#000" fill="none" stroke-width="18.0" stroke-linecap="round" stroke-linejoin="round"/>
    <polyline points="-67.13551047841567,-74.89906118272879 -68.43254288078958,-73.73120796204597 -69.70899588977986,-72.54089627441672 -70.96448068543467,-71.32848870031192 -72.1986148349231,-70.09435455082348 -73.41102240902791,-68.83886975516867 -74.60133409665715,-67.5624167461784 -75.76918731733997,-66.26538434380448 -76.9142263316721,-64.94816763668132 -78.03610234967753,-63.61116786177806 -79.13447363705333,-62.254792282177945 -80.20900561926518,-60.87945406302204 -81.2593709834621,-59.485572145655084 -82.28524977817902,-58.073571120011955 -83.28632951079717,-56.64388109528342 -84.26230524273231,-55.19693756890073 -85.212879682322,-53.73318129387888 -86.13776327538352,-52.25305814455896 -87.03667429341489,-50.75701898079055 -87.90933891941205,-49.245519510595365 -88.75549133127625,-47.71902015135426 -89.57487378278596,-46.17798588955959 -90.36723668210891,-44.62288613917583 -91.13233866783018,-43.05419459865155 -91.86994668247323,-41.47238910662623 -92.5798360434914,-39.87795149637605 -93.26179051170848,-38.27136744904275 -93.91560235718723,-36.653126345690474 -94.54107242250586,-35.023721118235564 -95.13801018342345,-33.3836480992947 -95.70623380691534,-31.7334068709972 -96.2455702065613,-30.073500112807444 -96.75585509526934,-28.404433448403857 -97.23693303531913,-26.726715291661026 -97.6886574857098,-25.04085669178192 -98.11089084679782,-23.347371177627334 -98.50350450221113,-21.646774601290048 -98.86637885802696,-19.939584980961264 -99.1994033792013,-18.226322343137248 -99.5024766232389,-16.50750856421423 -99.7755062710937,-14.783667211519793 -100.01840915529007,-13.055323383829194 -100.23111128525642,-11.32300355141519" stroke="#000" fill="none" stroke-width="18.0" stroke-linecap="round" stroke-linejoin="round"/>
    <polyline points="-100.23111128525642,-11.32300355141519 -100.41354786986346,-9.587235395680095 -100.56566333716025,-7.848547648418907 -100.68741135130185,-6.107469930762489 -100.77875482666376,-4.364532591849839 -100.83966593913851,-2.6202665472786015 -100.8701261346112,-0.8752031173830381 -100.8701261346112,0.8701261346112961 -100.83966593913851,2.6151895645068595 -100.77875482666376,4.359455609078097 -100.68741135130185,6.102392947990747 -100.56566333716025,7.843470665647165 -100.41354786986346,9.582158412908353 -100.23111128525642,11.317926568643449 -100.01840915529007,13.050246401057453 -99.7755062710937,14.778590228748053 -99.5024766232389,16.50243158144249 -99.1994033792013,18.221245360365508 -98.86637885802696,19.934507998189524 -98.50350450221113,21.64169761851831 -98.11089084679782,23.342294194855597 -97.6886574857098,25.035779709010182 -97.23693303531913,26.721638308889293 -96.75585509526935,28.399356465632124 -96.24557020656131,30.068423130035715 -95.70623380691535,31.728329888225474 -95.13801018342346,33.37857111652298 -94.54107242250588,35.018644135463845 -93.91560235718724,36.64804936291876 -93.2617905117085,38.26629046627104 -92.57983604349141,39.872874513604344 -91.86994668247324,41.467312123854526 -91.1323386678302,43.049117615879844 -90.36723668210892,44.617809156404135 -89.57487378278597,46.172908906787896 -88.75549133127626,47.71394316858257 -87.90933891941206,49.240442527823674 -87.0366742934149,50.751941998018864 -86.13776327538353,52.24798116178729 -85.21287968232201,53.7281043111072 -84.26230524273232,55.19186058612905 -83.28632951079719,56.63880411251174 -82.28524977817904,58.06849413724028" stroke="#000" fill="none" stroke-width="18.0" stroke-linecap="round" stroke-linejoin="round"/>
    <polyline points="-82.28524977817904,58.06849413724028 -81.25937098346212,59.480495162883415 -80.2090056192652,60.87437708025037 -79.13447363705333,62.24971529940628 -78.03610234967753,63.606090879006395 -76.9142263316721,64.94309065390966 -75.76918731733997,66.26030736103283 -74.60133409665715,67.55733976340676 -73.41102240902791,68.83379277239703 -72.1986148349231,70.08927756805184 -70.96448068543467,71.32341171754028 -69.70899588977986,72.53581929164508 -68.43254288078958,73.72613097927433 -67.13551047841567,74.89398419995716 -65.8182937712925,76.03902321428929 -64.48129399638924,77.16089923229472 -63.12491841678913,78.25927051967052 -61.749580197633215,79.33380250188239 -60.35569828026626,80.38416786607931 -58.943697254623125,81.41004666079624 -57.51400722989459,82.41112639341439 -56.0670637035119,83.38710212534953 -54.60330742849005,84.33767656493923 -53.12318427917013,85.26256015800077 -51.62714511540171,86.16147117603214 -50.11564564520652,87.03413580202931 -48.58914628596541,87.88028821389351 -47.04811202417074,88.69967066540322 -45.49301227378698,89.49203356472617 -43.92432073326269,90.25713555044746 -42.34251524123737,90.9947435650905 -40.74807763098719,91.70463292610867 -39.14149358365388,92.38658739432576 -37.52325248030161,93.0403992398045 -35.89384725284669,93.66586930512315 -34.25377423390582,94.26280706604074 -32.60353300560831,94.83103068953262 -30.94362624741855,95.37036708917859 -29.274559583014955,95.88065197788663 -27.59684142627212,96.36172991793642 -25.91098282639301,96.81345436832709 -24.21749731223842,97.2356877294151 -22.51690073590113,97.62830138482842" stroke="#000" fill="none" stroke-width="18.0" stroke-linecap="round" stroke-linejoin="round"/>
    <polyline points="-22.51690073590113,97.62830138482842 -20.80971111557234,97.99117574064425 -19.09644847774832,98.32420026181859 -17.3776346988253,98.6272735058562 -15.65379334613086,98.900303153711 -13.925449518440256,99.14320603790736 -12.193129686026248,99.35590816787371 -10.457361530291147,99.53834475248075 -8.718673783029955,99.69046021977753 -6.9775960653735325,99.81220823391914 -5.234658726460877,99.90355170928105 -3.4903926818896345,99.9644628217558 -1.7453292519940662,99.99492301722849 2.731148640577885e-13,99.99492301722849 1.7450634298958416,99.9644628217558 3.489329474467084,99.90355170928105 5.23226681337974,99.81220823391914 6.973344531036162,99.69046021977753 8.712032278297354,99.53834475248075 10.447800434032455,99.35590816787371 12.180120266446464,99.14320603790736 13.908464094137068,98.900303153711 15.632305446831511,98.6272735058562 17.351119225754534,98.32420026181859 19.064381863578557,97.99117574064425 20.771571483907348,97.62830138482842 22.472168060244638,97.2356877294151 24.16565357439923,96.81345436832709 25.851512174278344,96.36172991793642 27.529230331021182,95.88065197788663 29.198296995424776,95.37036708917859 30.85820375361454,94.83103068953262 32.50844498191205,94.26280706604074 34.14851800085292,93.66586930512315 35.777923228307834,93.04039923980451 37.39616433166012,92.38658739432577 39.002748378993424,91.70463292610869 40.59718598924361,90.99474356509052 42.17899148126894,90.25713555044747 43.74768302179323,89.49203356472619 45.30278277217699,88.69967066540323 46.84381703397167,87.88028821389352 48.37031639321278,87.03413580202933" stroke="#000" fill="none" stroke-width="18.0" stroke-linecap="round" stroke-linejoin="round"/>
    <polyline points="48.37031639321278,87.03413580202933 49.88181586340797,86.16147117603215 51.3778550271764,85.26256015800078 52.857978176496324,84.33767656493924 54.32173445151818,83.38710212534954 55.76867797790088,82.4111263934144 57.19836800262942,81.41004666079625 58.61036902827256,80.38416786607932 60.00425094563952,79.3338025018824 61.37958916479544,78.25927051967054 62.73596474439556,77.16089923229474 64.07296451929882,76.0390232142893 65.390181226422,74.89398419995716 66.68721362879593,73.72613097927433 67.96366663778622,72.53581929164508 69.21915143344104,71.32341171754027 70.45328558292948,70.08927756805183 71.6656931570343,68.833792772397 72.85600484466354,67.55733976340673 74.02385806534637,66.2603073610328 75.16889707967852,64.94309065390962 76.29077309768395,63.60609087900635 77.38914438505975,62.24971529940623 78.46367636727162,60.87437708025032 79.51404173146854,59.48049516288336 80.53992052618547,58.06849413724022 81.54100025880362,56.63880411251168 82.51697599073877,55.19186058612898 83.46755043032847,53.728104311107124 84.39243402339001,52.2479811617872 85.29134504142138,50.75194199801877 86.16400966741855,49.24044252782358 87.01016207928275,47.71394316858247 87.82954453079246,46.17290890678779 88.62190743011543,44.61780915640403 89.38700941583672,43.04911761587974 90.12461743047976,41.46731212385441 90.83450679149793,39.87287451360422 91.51646125971502,38.26629046627092 92.17027310519376,36.648049362918634 92.79574317051241,35.01864413546372 93.39268093143,33.37857111652284 93.96090455492188,31.728329888225332" stroke="#000" fill="none" stroke-width="18.0" stroke-linecap="round" stroke-linejoin="round"/>
    <polyline points="93.96090455492188,31.728329888225332 94.50024095456784,30.068423130035566 95.01052584327589,28.399356465631968 95.49160378332567,26.72163830888913 95.94332823371634,25.03577970901001 96.36556159480436,23.34229419485542 96.75817525021768,21.641697618518126 97.12104960603351,19.934507998189332 97.45407412720785,18.22124536036531 97.75714737124545,16.50243158144228 98.03017701910025,14.778590228747834 98.27307990329662,13.050246401057226 98.48578203326296,11.317926568643214 98.66821861787001,9.58215841290811 98.82033408516679,7.843470665646912 98.9420820993084,6.102392947990485 99.0334255746703,4.359455609077825 99.09433668714506,2.6151895645065784 99.12479688261774,0.8701261346110059" stroke="#000" fill="none" stroke-width="18.0" stroke-linecap="round" stroke-linejoin="round"/>
    <polygon points="0.0,0.0 0.0,0.0 0.0,0.0" fill="none" fill-rule="evenodd" stroke-linejoin="round"/>
    <line x1="0.0" y1="0.0" x2="0.0" y2="0.0" stroke="none" fill="none" stroke-width="2.0" stroke-linecap="round"/>
    <line x1="0.0" y1="0.0" x2="0.0" y2="0.0" stroke="none" fill="none" stroke-width="2.0" stroke-linecap="round"/>
</svg>